<svg xmlns="http://www.w3.org/2000/svg" xmlns:xlink="http://www.w3.org/1999/xlink" viewBox="0 0 1920 1080"><defs><style>.cls-1{fill:url(#linear-gradient)}.cls-2{fill:url(#linear-gradient-2)}.cls-3{fill:url(#linear-gradient-3)}.cls-4{fill:url(#linear-gradient-4)}.cls-10,.cls-11,.cls-5,.cls-6,.cls-7,.cls-8,.cls-9{opacity:.3}.cls-5{fill:url(#linear-gradient-5)}.cls-6{fill:url(#linear-gradient-6)}.cls-7{fill:url(#linear-gradient-7)}.cls-8{fill:url(#linear-gradient-8)}.cls-9{fill:url(#linear-gradient-9)}.cls-10{fill:url(#linear-gradient-10)}.cls-11{fill:url(#linear-gradient-11)}.cls-12{fill:url(#linear-gradient-12)}.cls-13,.cls-14{fill:none;stroke-linecap:round;stroke-miterlimit:10;stroke-width:2px}.cls-13{stroke:url(#linear-gradient-13)}.cls-14{stroke:url(#linear-gradient-14)}</style><linearGradient id="linear-gradient" x1="1431.53" x2="1512.14" y1="469.91" y2="469.91" gradientUnits="userSpaceOnUse"><stop offset="0" stop-color="#fb6386"/><stop offset="1" stop-color="#bf4780"/></linearGradient><linearGradient id="linear-gradient-2" x1="1431.53" x2="1542.05" y1="477.86" y2="477.86" xlink:href="#linear-gradient"/><linearGradient id="linear-gradient-3" x1="1463.77" x2="1544.38" y1="485.55" y2="485.55" xlink:href="#linear-gradient"/><linearGradient id="linear-gradient-4" x1="1449.66" x2="1526.24" y1="515.78" y2="439.2" gradientUnits="userSpaceOnUse"><stop offset="0" stop-color="#301e6d"/><stop offset="1" stop-color="#0d0b52"/></linearGradient><linearGradient id="linear-gradient-5" x1="1447.95" x2="1487.95" y1="495.62" y2="495.62" xlink:href="#linear-gradient"/><linearGradient id="linear-gradient-6" x1="1431.53" x2="1471.83" y1="503.69" y2="503.69" xlink:href="#linear-gradient"/><linearGradient id="linear-gradient-7" x1="1479.89" x2="1504.07" y1="491.59" y2="491.59" xlink:href="#linear-gradient"/><linearGradient id="linear-gradient-8" x1="1496.01" x2="1520.2" y1="483.53" y2="483.53" xlink:href="#linear-gradient"/><linearGradient id="linear-gradient-9" x1="1512.14" x2="1536.33" y1="475.47" y2="475.47" xlink:href="#linear-gradient"/><linearGradient id="linear-gradient-10" x1="1431.53" x2="1447.65" y1="489.58" y2="489.58" gradientUnits="userSpaceOnUse"><stop offset="0"/><stop offset="1" stop-color="#0d0b52"/></linearGradient><linearGradient id="linear-gradient-11" x1="1528.26" x2="1544.38" y1="465.4" y2="465.4" xlink:href="#linear-gradient"/><linearGradient id="linear-gradient-12" x1="1410.98" x2="1454.27" y1="531.51" y2="488.22" gradientUnits="userSpaceOnUse"><stop offset="0" stop-color="#fdb58d" stop-opacity="0"/><stop offset=".23" stop-color="#fdb58d" stop-opacity=".01"/><stop offset=".36" stop-color="#fdb58d" stop-opacity=".04"/><stop offset=".48" stop-color="#fdb58d" stop-opacity=".1"/><stop offset=".58" stop-color="#fdb58d" stop-opacity=".18"/><stop offset=".67" stop-color="#fdb58d" stop-opacity=".28"/><stop offset=".75" stop-color="#fdb58d" stop-opacity=".41"/><stop offset=".83" stop-color="#fdb58d" stop-opacity=".56"/><stop offset=".91" stop-color="#fdb58d" stop-opacity=".74"/><stop offset=".98" stop-color="#fdb58d" stop-opacity=".93"/><stop offset="1" stop-color="#fdb58d"/></linearGradient><linearGradient id="linear-gradient-13" x1="1438.59" x2="1456.71" y1="505.7" y2="505.7" gradientUnits="userSpaceOnUse"><stop offset="0" stop-color="#fdb58d"/><stop offset="1" stop-color="#ffe67f"/></linearGradient><linearGradient id="linear-gradient-14" x1="1438.69" x2="1456.82" y1="489.63" y2="489.63" xlink:href="#linear-gradient-13"/></defs><title>bus</title><g id="Bus"><path d="M1431.53,482.73v16.5a4,4,0,0,0,5.79,3.58l74.82-37.41V442.16a5.57,5.57,0,0,0-8.06-5h0l-64.26,32.13A15,15,0,0,0,1431.53,482.73Z" class="cls-1"/><polyline points="1472.06 485.43 1542.05 452.11 1508.45 436.92 1439.82 469.31 1431.53 481.52 1433.7 502.79 1465.73 518.81 1463.77 497.72 1472.06 485.43" class="cls-2"/><path d="M1463.77,498.85v16.5a4,4,0,0,0,5.79,3.58l72.61-36.31a4,4,0,0,0,2.21-3.58v-23.3a4,4,0,0,0-5.79-3.57l-66.53,33.26A15,15,0,0,0,1463.77,498.85Z" class="cls-3"/><polygon points="1463.77 497.64 1431.53 481.52 1431.53 497.64 1463.77 513.76 1463.77 497.64 1463.77 513.76 1544.38 473.46 1544.38 457.33 1463.77 497.64" class="cls-4"/><polygon points="1479.89 505.7 1447.95 489.58 1456.01 485.55 1487.95 501.67 1479.89 505.7" class="cls-5"/><polygon points="1463.77 513.76 1431.53 497.64 1439.59 493.61 1471.83 509.73 1463.77 513.76" class="cls-6"/><polygon points="1496.01 497.64 1479.89 489.58 1487.95 485.55 1504.08 493.61 1496.01 497.64" class="cls-7"/><polygon points="1512.14 489.58 1496.01 481.52 1504.08 477.49 1520.2 485.55 1512.14 489.58" class="cls-8"/><polygon points="1528.27 481.52 1512.14 473.46 1520.21 469.43 1536.33 477.49 1528.27 481.52" class="cls-9"/><polygon points="1431.53 497.64 1431.53 481.52 1447.65 489.58 1431.53 497.64" class="cls-10"/><polygon points="1528.26 465.39 1544.38 457.33 1544.38 473.46 1528.26 465.39" class="cls-11"/><polyline points="1431.53 481.52 1463.77 497.72 1463.77 513.76 1447.65 546.46 1403.31 523.84 1403.31 487.56 1431.53 481.52" class="cls-12"/><line x1="1439.59" x2="1455.71" y1="501.67" y2="509.73" class="cls-13"/><line x1="1439.69" x2="1455.82" y1="485.6" y2="493.66" class="cls-14"/></g></svg>